<svg width="80" height="26" viewBox="0 0 80 26" fill="none" xmlns="http://www.w3.org/2000/svg">
<path d="M20.7731 18.546C20.8886 19.5175 21.6852 20.2061 22.9667 20.2061C23.6363 20.2061 24.5138 19.9355 24.9294 19.4806L26.0955 20.6979C25.3219 21.5587 24.052 21.9645 22.9436 21.9645C20.4152 21.9645 18.9028 20.3045 18.9028 17.7959C18.9028 15.4227 20.4268 13.7012 22.8051 13.7012C25.2642 13.7012 26.7997 15.3243 26.5111 18.5337H20.7731V18.546ZM24.7562 16.9475C24.6408 15.9269 23.8903 15.4227 22.8513 15.4227C21.8699 15.4227 21.0618 15.9269 20.7962 16.9475H24.7562Z" fill="white"/>
<path d="M33.6921 25.0387V20.8455C33.1726 21.7063 32.0296 21.9522 31.2446 21.9522C28.8894 21.9522 27.5386 20.1446 27.5386 17.8575C27.5386 15.558 29.0394 13.7627 31.3023 13.7627C32.1335 13.7627 33.1149 14.1439 33.6806 15.017L33.796 13.9349H35.4932V25.0264H33.6921V25.0387ZM33.5305 17.8698C33.5305 16.6524 32.757 15.6441 31.4408 15.6441C30.1247 15.6441 29.3512 16.6401 29.3512 17.8698C29.3512 19.0994 30.2055 20.0954 31.4408 20.0954C32.6877 20.0831 33.5305 19.0871 33.5305 17.8698Z" fill="white"/>
<path d="M38.8183 13.9468V18.0416C38.8183 19.2343 39.4301 20.132 40.5962 20.132C41.7161 20.132 42.4781 19.1359 42.4781 17.9432V13.9468H44.2791V21.7797H42.6512L42.5358 20.7222C41.7738 21.5215 41.0811 21.8904 40.0536 21.8904C38.2987 21.8904 37.0172 20.4763 37.0172 18.0538V13.9468H38.8183Z" fill="white"/>
<path d="M51.7027 13.9468H53.446V21.7675H51.7373L51.645 20.6239C51.2293 21.5461 50.0864 21.9888 49.2667 22.0011C47.0962 22.0134 45.4799 20.587 45.4799 17.8448C45.4799 15.1519 47.1654 13.7378 49.3128 13.7501C50.2942 13.7501 51.2293 14.2419 51.6565 15.0166L51.7027 13.9468ZM47.2924 17.8571C47.2924 19.345 48.2622 20.2304 49.4629 20.2304C52.3261 20.2304 52.3261 15.4839 49.4629 15.4839C48.2622 15.4839 47.2924 16.357 47.2924 17.8571Z" fill="white"/>
<path d="M57.2326 11.7461V13.9718H59.253V15.6318H57.2095V19.0134C57.2095 19.7635 57.602 20.1201 58.1678 20.1201C58.4564 20.1201 58.7797 20.0217 59.0452 19.8864L59.5532 21.5342C59.0336 21.7555 58.5949 21.8539 58.0523 21.8662C56.4591 21.9277 55.42 20.9562 55.42 19.0134V15.6318H54.0461V13.9718H55.42V11.9551L57.2326 11.7461Z" fill="white"/>
<path d="M62.5895 11.7462C62.5895 13.2587 60.4421 13.2587 60.4421 11.7462C60.4421 10.2337 62.5895 10.2337 62.5895 11.7462ZM60.6038 13.9227V21.7802H62.4164V13.9227H60.6038Z" fill="white"/>
<path d="M71.5256 17.8696C71.5256 20.1199 70.0824 21.9521 67.6926 21.9521C65.3027 21.9521 63.8827 20.1322 63.8827 17.8696C63.8827 15.6316 65.3374 13.7871 67.681 13.7871C70.0247 13.7871 71.5256 15.6316 71.5256 17.8696ZM65.7068 17.8696C65.7068 19.0624 66.3764 20.169 67.7041 20.169C69.0318 20.169 69.7014 19.0624 69.7014 17.8696C69.7014 16.7014 68.9279 15.5578 67.7041 15.5578C66.388 15.5578 65.7068 16.6891 65.7068 17.8696Z" fill="white"/>
<path d="M78.1872 21.7678V17.6731C78.1872 16.4803 77.5753 15.5826 76.4092 15.5826C75.2893 15.5826 74.5274 16.5787 74.5274 17.7714V21.7678H72.7263V13.9349H74.3542L74.4696 14.9924C75.2201 14.2177 75.959 13.8242 76.8826 13.8242C78.6143 13.8242 79.9998 15.2014 79.9998 17.6608V21.7678H78.1872Z" fill="white"/>
<path d="M20.7731 18.546C20.8886 19.5175 21.6852 20.2061 22.9667 20.2061C23.6363 20.2061 24.5138 19.9355 24.9294 19.4806L26.0955 20.6979C25.3219 21.5587 24.052 21.9645 22.9436 21.9645C20.4152 21.9645 18.9028 20.3045 18.9028 17.7959C18.9028 15.4227 20.4268 13.7012 22.8051 13.7012C25.2642 13.7012 26.7997 15.3243 26.5111 18.5337H20.7731V18.546ZM24.7562 16.9475C24.6408 15.9269 23.8903 15.4227 22.8513 15.4227C21.8699 15.4227 21.0618 15.9269 20.7962 16.9475H24.7562Z" fill="white"/>
<path d="M33.6921 25.0387V20.8455C33.1726 21.7063 32.0296 21.9522 31.2446 21.9522C28.8894 21.9522 27.5386 20.1446 27.5386 17.8575C27.5386 15.558 29.0394 13.7627 31.3023 13.7627C32.1335 13.7627 33.1149 14.1439 33.6806 15.017L33.796 13.9349H35.4932V25.0264H33.6921V25.0387ZM33.5305 17.8698C33.5305 16.6524 32.757 15.6441 31.4408 15.6441C30.1247 15.6441 29.3512 16.6401 29.3512 17.8698C29.3512 19.0994 30.2055 20.0954 31.4408 20.0954C32.6877 20.0831 33.5305 19.0871 33.5305 17.8698Z" fill="white"/>
<path d="M38.8183 13.9468V18.0416C38.8183 19.2343 39.4301 20.132 40.5962 20.132C41.7161 20.132 42.4781 19.1359 42.4781 17.9432V13.9468H44.2791V21.7797H42.6512L42.5358 20.7222C41.7738 21.5215 41.0811 21.8904 40.0536 21.8904C38.2987 21.8904 37.0172 20.4763 37.0172 18.0538V13.9468H38.8183Z" fill="white"/>
<path d="M51.7027 13.9468H53.446V21.7675H51.7373L51.645 20.6239C51.2293 21.5461 50.0864 21.9888 49.2667 22.0011C47.0962 22.0134 45.4799 20.587 45.4799 17.8448C45.4799 15.1519 47.1654 13.7378 49.3128 13.7501C50.2942 13.7501 51.2293 14.2419 51.6565 15.0166L51.7027 13.9468ZM47.2924 17.8571C47.2924 19.345 48.2622 20.2304 49.4629 20.2304C52.3261 20.2304 52.3261 15.4839 49.4629 15.4839C48.2622 15.4839 47.2924 16.357 47.2924 17.8571Z" fill="white"/>
<path d="M57.2326 11.7461V13.9718H59.253V15.6318H57.2095V19.0134C57.2095 19.7635 57.602 20.1201 58.1678 20.1201C58.4564 20.1201 58.7797 20.0217 59.0452 19.8864L59.5532 21.5342C59.0336 21.7555 58.5949 21.8539 58.0523 21.8662C56.4591 21.9277 55.42 20.9562 55.42 19.0134V15.6318H54.0461V13.9718H55.42V11.9551L57.2326 11.7461Z" fill="white"/>
<path d="M62.5895 11.7462C62.5895 13.2587 60.4421 13.2587 60.4421 11.7462C60.4421 10.2337 62.5895 10.2337 62.5895 11.7462ZM60.6038 13.9227V21.7802H62.4164V13.9227H60.6038Z" fill="white"/>
<path d="M71.5256 17.8696C71.5256 20.1199 70.0824 21.9521 67.6926 21.9521C65.3027 21.9521 63.8827 20.1322 63.8827 17.8696C63.8827 15.6316 65.3374 13.7871 67.681 13.7871C70.0247 13.7871 71.5256 15.6316 71.5256 17.8696ZM65.7068 17.8696C65.7068 19.0624 66.3764 20.169 67.7041 20.169C69.0318 20.169 69.7014 19.0624 69.7014 17.8696C69.7014 16.7014 68.9279 15.5578 67.7041 15.5578C66.388 15.5578 65.7068 16.6891 65.7068 17.8696Z" fill="white"/>
<path d="M78.1872 21.7678V17.6731C78.1872 16.4803 77.5753 15.5826 76.4092 15.5826C75.2893 15.5826 74.5274 16.5787 74.5274 17.7714V21.7678H72.7263V13.9349H74.3542L74.4696 14.9924C75.2201 14.2177 75.959 13.8242 76.8826 13.8242C78.6143 13.8242 79.9998 15.2014 79.9998 17.6608V21.7678H78.1872Z" fill="white"/>
<path d="M24.0061 8.64735V4.4911C24.0061 3.47048 23.4981 2.53594 22.5168 2.53594C21.547 2.53594 20.9697 3.47048 20.9697 4.4911V8.64735H19.1687V0.875896H20.8427L20.9813 1.82274C21.3623 1.03575 22.2051 0.75293 22.8978 0.75293C23.7752 0.75293 24.6411 1.13413 25.0567 2.20393C25.7033 1.09724 26.546 0.789822 27.4928 0.789822C29.5593 0.789822 30.5868 2.14245 30.5868 4.46651V8.64735H28.7858V4.46651C28.7858 3.44589 28.3817 2.57283 27.4119 2.57283C26.4421 2.57283 25.8303 3.47048 25.8303 4.4911V8.64735H24.0061Z" fill="white"/>
<path d="M39.4306 0.888184L34.9857 11.8936H32.9999L34.3623 8.52437L31.4529 0.888184H33.5541L34.6624 4.24516L35.3551 6.43395L36.1056 4.29434L37.4333 0.900481H39.4306V0.888184Z" fill="white"/>
<path d="M24.0061 8.64735V4.4911C24.0061 3.47048 23.4981 2.53594 22.5168 2.53594C21.547 2.53594 20.9697 3.47048 20.9697 4.4911V8.64735H19.1687V0.875896H20.8427L20.9813 1.82274C21.3623 1.03575 22.2051 0.75293 22.8978 0.75293C23.7752 0.75293 24.6411 1.13413 25.0567 2.20393C25.7033 1.09724 26.546 0.789822 27.4928 0.789822C29.5593 0.789822 30.5868 2.14245 30.5868 4.46651V8.64735H28.7858V4.46651C28.7858 3.44589 28.3817 2.57283 27.4119 2.57283C26.4421 2.57283 25.8303 3.47048 25.8303 4.4911V8.64735H24.0061Z" fill="white"/>
<path d="M39.4306 0.888184L34.9857 11.8936H32.9999L34.3623 8.52437L31.4529 0.888184H33.5541L34.6624 4.24516L35.3551 6.43395L36.1056 4.29434L37.4333 0.900481H39.4306V0.888184Z" fill="white"/>
<path d="M37.7445 22.9849H38.9105V23.3784H38.137V23.8948H38.7835V24.276H38.137V24.8048H38.9336V25.1983H37.7329V22.9849H37.7445Z" fill="white"/>
<path d="M42.8013 22.9849H43.5517C44.1174 22.9849 44.5561 23.4398 44.5561 24.0916C44.5561 24.7433 44.129 25.1983 43.5517 25.1983H42.8013V22.9849ZM43.5286 24.7802C43.9211 24.7802 44.129 24.4973 44.129 24.0793C44.129 23.6612 43.9211 23.3784 43.5286 23.3784H43.1938V24.7802H43.5286Z" fill="white"/>
<path d="M47.7772 24.3621V22.9849H48.1813V24.3621C48.1813 24.7064 48.3776 24.8171 48.5623 24.8171C48.747 24.8171 48.9433 24.7064 48.9433 24.3621V22.9849H49.3474V24.3621C49.3474 24.9154 49.001 25.2106 48.5623 25.2106C48.1236 25.2106 47.7772 24.9154 47.7772 24.3621Z" fill="white"/>
<path d="M53.2035 24.0795C53.2035 23.3909 53.6884 22.9482 54.2656 22.9482C54.5427 22.9482 54.8891 23.0589 55.1084 23.4278L54.8198 23.6369C54.6813 23.4278 54.485 23.354 54.2887 23.354C53.9193 23.354 53.6191 23.6369 53.6191 24.0795C53.6191 24.5345 53.9193 24.805 54.2887 24.805C54.4966 24.805 54.6928 24.719 54.8198 24.5222L55.1084 24.7312C54.8891 25.1001 54.5543 25.2108 54.2656 25.2108C53.6884 25.2108 53.2035 24.7681 53.2035 24.0795Z" fill="white"/>
<path d="M59.4494 22.9849L60.246 25.186H59.8189L59.6803 24.7925H58.8029L58.6643 25.186H58.2372L59.0338 22.9849H59.4494ZM59.5418 24.399L59.2416 23.5136L58.9414 24.399H59.5418Z" fill="white"/>
<path d="M63.848 23.3661H63.3516V22.9727H64.7485V23.3661H64.2521V25.186H63.848V23.3661Z" fill="white"/>
<path d="M67.9695 22.9849H68.3736V25.186H67.9695V22.9849Z" fill="white"/>
<path d="M72.23 24.0795C72.23 23.4032 72.7149 22.9482 73.2921 22.9482C73.8694 22.9482 74.3543 23.4032 74.3543 24.0795C74.3543 24.7558 73.8694 25.2108 73.2921 25.2108C72.7149 25.2108 72.23 24.7558 72.23 24.0795ZM73.2921 24.805C73.65 24.805 73.9502 24.5222 73.9502 24.0795C73.9502 23.6369 73.65 23.354 73.2921 23.354C72.9342 23.354 72.6341 23.6369 72.6341 24.0795C72.6341 24.5222 72.9458 24.805 73.2921 24.805Z" fill="white"/>
<path d="M77.6215 22.9849H78.0255L78.9722 24.4851H78.9838V22.9849H79.3879V25.186H78.9838L78.0371 23.6858H78.0255V25.186H77.6215V22.9849Z" fill="white"/>
<path d="M37.7445 22.9849H38.9105V23.3784H38.137V23.8948H38.7835V24.276H38.137V24.8048H38.9336V25.1983H37.7329V22.9849H37.7445Z" fill="white"/>
<path d="M42.8013 22.9849H43.5517C44.1174 22.9849 44.5561 23.4398 44.5561 24.0916C44.5561 24.7433 44.129 25.1983 43.5517 25.1983H42.8013V22.9849ZM43.5286 24.7802C43.9211 24.7802 44.129 24.4973 44.129 24.0793C44.129 23.6612 43.9211 23.3784 43.5286 23.3784H43.1938V24.7802H43.5286Z" fill="white"/>
<path d="M47.7772 24.3621V22.9849H48.1813V24.3621C48.1813 24.7064 48.3776 24.8171 48.5623 24.8171C48.747 24.8171 48.9433 24.7064 48.9433 24.3621V22.9849H49.3474V24.3621C49.3474 24.9154 49.001 25.2106 48.5623 25.2106C48.1236 25.2106 47.7772 24.9154 47.7772 24.3621Z" fill="white"/>
<path d="M53.2035 24.0795C53.2035 23.3909 53.6884 22.9482 54.2656 22.9482C54.5427 22.9482 54.8891 23.0589 55.1084 23.4278L54.8198 23.6369C54.6813 23.4278 54.485 23.354 54.2887 23.354C53.9193 23.354 53.6191 23.6369 53.6191 24.0795C53.6191 24.5345 53.9193 24.805 54.2887 24.805C54.4966 24.805 54.6928 24.719 54.8198 24.5222L55.1084 24.7312C54.8891 25.1001 54.5543 25.2108 54.2656 25.2108C53.6884 25.2108 53.2035 24.7681 53.2035 24.0795Z" fill="white"/>
<path d="M59.4494 22.9849L60.246 25.186H59.8189L59.6803 24.7925H58.8029L58.6643 25.186H58.2372L59.0338 22.9849H59.4494ZM59.5418 24.399L59.2416 23.5136L58.9414 24.399H59.5418Z" fill="white"/>
<path d="M63.848 23.3661H63.3516V22.9727H64.7485V23.3661H64.2521V25.186H63.848V23.3661Z" fill="white"/>
<path d="M67.9695 22.9849H68.3736V25.186H67.9695V22.9849Z" fill="white"/>
<path d="M72.23 24.0795C72.23 23.4032 72.7149 22.9482 73.2921 22.9482C73.8694 22.9482 74.3543 23.4032 74.3543 24.0795C74.3543 24.7558 73.8694 25.2108 73.2921 25.2108C72.7149 25.2108 72.23 24.7558 72.23 24.0795ZM73.2921 24.805C73.65 24.805 73.9502 24.5222 73.9502 24.0795C73.9502 23.6369 73.65 23.354 73.2921 23.354C72.9342 23.354 72.6341 23.6369 72.6341 24.0795C72.6341 24.5222 72.9458 24.805 73.2921 24.805Z" fill="white"/>
<path d="M77.6215 22.9849H78.0255L78.9722 24.4851H78.9838V22.9849H79.3879V25.186H78.9838L78.0371 23.6858H78.0255V25.186H77.6215V22.9849Z" fill="white"/>
<path d="M4.88745 0.691406H15.6475L15.7283 4.87225H15.128C15.128 4.87225 15.2665 1.98255 12.0339 2.01944H5.93806C5.92651 2.03174 5.17608 0.998821 4.88745 0.691406Z" fill="white"/>
<path d="M6.98858 19.4317H14.1235C14.1235 19.4317 16.3979 19.1735 16.7442 16.542H17.4716C17.4716 16.542 16.4671 21.0303 16.4902 22.3829C16.4902 22.3829 15.8206 22.223 14.9547 22.1615H5.14136L6.98858 19.4317Z" fill="white"/>
<path d="M3.5596 0.531738L11.0524 10.9961C11.0524 10.9961 11.2718 11.279 10.9947 11.6479L3.81359 22.2598L0.0498743 22.3951C0.0498743 22.3951 -0.0886663 22.2967 0.096056 22.1L7.4734 11.8692C7.4734 11.8692 7.90057 11.4757 7.58885 11.1191L0.0498743 0.765373C0.0498743 0.765373 -0.157938 0.531739 0.407775 0.544036H3.5596V0.531738Z" fill="white"/>
</svg>
