<svg width="142" height="44" viewBox="0 0 142 44" fill="none" xmlns="http://www.w3.org/2000/svg">
<path d="M36.8194 31.9295C37.024 33.6513 38.436 34.8718 40.7074 34.8718C41.8942 34.8718 43.4494 34.3923 44.1861 33.5859L46.2528 35.7436C44.8818 37.2692 42.6309 37.9884 40.6664 37.9884C36.185 37.9884 33.5044 35.0461 33.5044 30.6C33.5044 26.3936 36.2055 23.3423 40.4209 23.3423C44.7795 23.3423 47.5011 26.2192 46.9895 31.9077H36.8194V31.9295ZM43.8791 29.0961C43.6745 27.2872 42.3444 26.3936 40.5027 26.3936C38.7634 26.3936 37.331 27.2872 36.8603 29.0961H43.8791Z" fill="black"/>
<path d="M59.7174 43.4371V36.005C58.7966 37.5307 56.7708 37.9666 55.3793 37.9666C51.2048 37.9666 48.8107 34.7627 48.8107 30.7089C48.8107 26.6332 51.4709 23.4512 55.4816 23.4512C56.9549 23.4512 58.6943 24.1268 59.697 25.6743L59.9016 23.7563H62.9097V43.4153H59.7174V43.4371ZM59.4309 30.7307C59.4309 28.573 58.0599 26.7858 55.7271 26.7858C53.3944 26.7858 52.0234 28.5512 52.0234 30.7307C52.0234 32.9102 53.5376 34.6755 55.7271 34.6755C57.9371 34.6537 59.4309 32.8884 59.4309 30.7307Z" fill="black"/>
<path d="M68.8031 23.7778V31.0355C68.8031 33.1496 69.8876 34.7407 71.9544 34.7407C73.9393 34.7407 75.2898 32.9753 75.2898 30.8612V23.7778H78.482V37.6612H75.5968L75.3921 35.7868C74.0416 37.2035 72.8138 37.8573 70.9926 37.8573C67.8822 37.8573 65.6108 35.3509 65.6108 31.0573V23.7778H68.8031Z" fill="black"/>
<path d="M91.6396 23.7781H94.7296V37.6396H91.701L91.5373 35.6127C90.8007 37.2473 88.7748 38.0319 87.322 38.0537C83.4749 38.0755 80.6101 35.5473 80.6101 30.687C80.6101 25.914 83.5977 23.4075 87.4038 23.4293C89.1432 23.4293 90.8007 24.3011 91.5578 25.6742L91.6396 23.7781ZM83.8228 30.7088C83.8228 33.346 85.5417 34.9152 87.6698 34.9152C92.7446 34.9152 92.7446 26.5024 87.6698 26.5024C85.5417 26.5024 83.8228 28.0499 83.8228 30.7088Z" fill="black"/>
<path d="M101.441 19.877V23.8218H105.023V26.7641H101.401V32.7577C101.401 34.0872 102.096 34.7193 103.099 34.7193C103.611 34.7193 104.184 34.5449 104.654 34.3052L105.555 37.2257C104.634 37.618 103.856 37.7923 102.894 37.8141C100.07 37.9231 98.2288 36.2013 98.2288 32.7577V26.7641H95.7937V23.8218H98.2288V20.2475L101.441 19.877Z" fill="black"/>
<path d="M110.936 19.8768C110.936 22.5576 107.13 22.5576 107.13 19.8768C107.13 17.196 110.936 17.196 110.936 19.8768ZM107.417 23.7345V37.6614H110.629V23.7345H107.417Z" fill="black"/>
<path d="M126.775 30.7305C126.775 34.719 124.217 37.9664 119.981 37.9664C115.745 37.9664 113.228 34.7408 113.228 30.7305C113.228 26.7639 115.806 23.4946 119.96 23.4946C124.114 23.4946 126.775 26.7639 126.775 30.7305ZM116.461 30.7305C116.461 32.8446 117.648 34.8062 120.001 34.8062C122.355 34.8062 123.541 32.8446 123.541 30.7305C123.541 28.66 122.17 26.6331 120.001 26.6331C117.668 26.6331 116.461 28.6382 116.461 30.7305Z" fill="black"/>
<path d="M138.582 37.6396V30.3819C138.582 28.2678 137.497 26.6767 135.43 26.6767C133.445 26.6767 132.095 28.4421 132.095 30.5562V37.6396H128.903V23.7562H131.788L131.993 25.6306C133.323 24.2575 134.632 23.5601 136.269 23.5601C139.339 23.5601 141.794 26.0011 141.794 30.3601V37.6396H138.582Z" fill="black"/>
<path d="M36.8194 31.9295C37.024 33.6513 38.436 34.8718 40.7074 34.8718C41.8942 34.8718 43.4494 34.3923 44.1861 33.5859L46.2528 35.7436C44.8818 37.2692 42.6309 37.9884 40.6664 37.9884C36.185 37.9884 33.5044 35.0461 33.5044 30.6C33.5044 26.3936 36.2055 23.3423 40.4209 23.3423C44.7795 23.3423 47.5011 26.2192 46.9895 31.9077H36.8194V31.9295ZM43.8791 29.0961C43.6745 27.2872 42.3444 26.3936 40.5027 26.3936C38.7634 26.3936 37.331 27.2872 36.8603 29.0961H43.8791Z" fill="url(#paint0_linear_89_34)"/>
<path d="M59.7174 43.4371V36.005C58.7966 37.5307 56.7708 37.9666 55.3793 37.9666C51.2048 37.9666 48.8107 34.7627 48.8107 30.7089C48.8107 26.6332 51.4709 23.4512 55.4816 23.4512C56.9549 23.4512 58.6943 24.1268 59.697 25.6743L59.9016 23.7563H62.9097V43.4153H59.7174V43.4371ZM59.4309 30.7307C59.4309 28.573 58.0599 26.7858 55.7271 26.7858C53.3944 26.7858 52.0234 28.5512 52.0234 30.7307C52.0234 32.9102 53.5376 34.6755 55.7271 34.6755C57.9371 34.6537 59.4309 32.8884 59.4309 30.7307Z" fill="url(#paint1_linear_89_34)"/>
<path d="M68.8031 23.7778V31.0355C68.8031 33.1496 69.8876 34.7407 71.9544 34.7407C73.9393 34.7407 75.2898 32.9753 75.2898 30.8612V23.7778H78.482V37.6612H75.5968L75.3921 35.7868C74.0416 37.2035 72.8138 37.8573 70.9926 37.8573C67.8822 37.8573 65.6108 35.3509 65.6108 31.0573V23.7778H68.8031Z" fill="url(#paint2_linear_89_34)"/>
<path d="M91.6396 23.7781H94.7296V37.6396H91.701L91.5373 35.6127C90.8007 37.2473 88.7748 38.0319 87.322 38.0537C83.4749 38.0755 80.6101 35.5473 80.6101 30.687C80.6101 25.914 83.5977 23.4075 87.4038 23.4293C89.1432 23.4293 90.8007 24.3011 91.5578 25.6742L91.6396 23.7781ZM83.8228 30.7088C83.8228 33.346 85.5417 34.9152 87.6698 34.9152C92.7446 34.9152 92.7446 26.5024 87.6698 26.5024C85.5417 26.5024 83.8228 28.0499 83.8228 30.7088Z" fill="url(#paint3_linear_89_34)"/>
<path d="M101.441 19.877V23.8218H105.023V26.7641H101.401V32.7577C101.401 34.0872 102.096 34.7193 103.099 34.7193C103.611 34.7193 104.184 34.5449 104.654 34.3052L105.555 37.2257C104.634 37.618 103.856 37.7923 102.894 37.8141C100.07 37.9231 98.2288 36.2013 98.2288 32.7577V26.7641H95.7937V23.8218H98.2288V20.2475L101.441 19.877Z" fill="url(#paint4_linear_89_34)"/>
<path d="M110.936 19.8768C110.936 22.5576 107.13 22.5576 107.13 19.8768C107.13 17.196 110.936 17.196 110.936 19.8768ZM107.417 23.7345V37.6614H110.629V23.7345H107.417Z" fill="url(#paint5_linear_89_34)"/>
<path d="M126.775 30.7305C126.775 34.719 124.217 37.9664 119.981 37.9664C115.745 37.9664 113.228 34.7408 113.228 30.7305C113.228 26.7639 115.806 23.4946 119.96 23.4946C124.114 23.4946 126.775 26.7639 126.775 30.7305ZM116.461 30.7305C116.461 32.8446 117.648 34.8062 120.001 34.8062C122.355 34.8062 123.541 32.8446 123.541 30.7305C123.541 28.66 122.17 26.6331 120.001 26.6331C117.668 26.6331 116.461 28.6382 116.461 30.7305Z" fill="url(#paint6_linear_89_34)"/>
<path d="M138.582 37.6396V30.3819C138.582 28.2678 137.497 26.6767 135.43 26.6767C133.445 26.6767 132.095 28.4421 132.095 30.5562V37.6396H128.903V23.7562H131.788L131.993 25.6306C133.323 24.2575 134.632 23.5601 136.269 23.5601C139.339 23.5601 141.794 26.0011 141.794 30.3601V37.6396H138.582Z" fill="url(#paint7_linear_89_34)"/>
<path d="M42.5491 14.3844V7.01774C42.5491 5.20876 41.6487 3.55235 39.9094 3.55235C38.1905 3.55235 37.1673 5.20876 37.1673 7.01774V14.3844H33.9751V0.610039H36.9422L37.1878 2.28825C37.8631 0.893375 39.3569 0.39209 40.5846 0.39209C42.1398 0.39209 43.6745 1.06773 44.4112 2.96389C45.5571 1.00235 47.0509 0.457478 48.7289 0.457478C52.3918 0.457478 54.213 2.85491 54.213 6.97414V14.3844H51.0207V6.97414C51.0207 5.16517 50.3045 3.61773 48.5857 3.61773C46.8668 3.61773 45.7822 5.20876 45.7822 7.01774V14.3844H42.5491Z" fill="black"/>
<path d="M69.8876 0.631836L62.0093 20.1383H58.4897L60.9043 14.1665L55.7477 0.631836H59.4719L61.4364 6.58184L62.6642 10.4613L63.9943 6.66902L66.3475 0.653632H69.8876V0.631836Z" fill="black"/>
<path d="M42.5491 14.3844V7.01774C42.5491 5.20876 41.6487 3.55235 39.9094 3.55235C38.1905 3.55235 37.1673 5.20876 37.1673 7.01774V14.3844H33.9751V0.610039H36.9422L37.1878 2.28825C37.8631 0.893375 39.3569 0.39209 40.5846 0.39209C42.1398 0.39209 43.6745 1.06773 44.4112 2.96389C45.5571 1.00235 47.0509 0.457478 48.7289 0.457478C52.3918 0.457478 54.213 2.85491 54.213 6.97414V14.3844H51.0207V6.97414C51.0207 5.16517 50.3045 3.61773 48.5857 3.61773C46.8668 3.61773 45.7822 5.20876 45.7822 7.01774V14.3844H42.5491Z" fill="url(#paint8_linear_89_34)"/>
<path d="M69.8876 0.631836L62.0093 20.1383H58.4897L60.9043 14.1665L55.7477 0.631836H59.4719L61.4364 6.58184L62.6642 10.4613L63.9943 6.66902L66.3475 0.653632H69.8876V0.631836Z" fill="url(#paint9_linear_89_34)"/>
<path d="M66.9 39.7974H68.9667V40.4948H67.5957V41.4102H68.7417V42.0858H67.5957V43.023H69.0077V43.7204H66.8795V39.7974H66.9Z" fill="black"/>
<path d="M75.8628 39.7974H77.1929C78.1956 39.7974 78.9732 40.6038 78.9732 41.7589C78.9732 42.914 78.216 43.7204 77.1929 43.7204H75.8628V39.7974ZM77.152 42.9794C77.8477 42.9794 78.216 42.4781 78.216 41.7371C78.216 40.9961 77.8477 40.4948 77.152 40.4948H76.5585V42.9794H77.152Z" fill="black"/>
<path d="M84.6823 42.2384V39.7974H85.3985V42.2384C85.3985 42.8486 85.7463 43.0448 86.0737 43.0448C86.4011 43.0448 86.749 42.8486 86.749 42.2384V39.7974H87.4652V42.2384C87.4652 43.2192 86.8513 43.7422 86.0737 43.7422C85.2961 43.7422 84.6823 43.2192 84.6823 42.2384Z" fill="black"/>
<path d="M94.2999 41.7371C94.2999 40.5166 95.1594 39.7319 96.1825 39.7319C96.6736 39.7319 97.2875 39.9281 97.6763 40.5819L97.1647 40.9525C96.9192 40.5819 96.5713 40.4512 96.2235 40.4512C95.5686 40.4512 95.0366 40.9524 95.0366 41.7371C95.0366 42.5435 95.5686 43.023 96.2235 43.023C96.5918 43.023 96.9396 42.8704 97.1647 42.5217L97.6763 42.8922C97.2875 43.546 96.6941 43.7422 96.1825 43.7422C95.1594 43.7422 94.2999 42.9576 94.2999 41.7371Z" fill="black"/>
<path d="M105.37 39.7974L106.782 43.6987H106.025L105.78 43.0012H104.224L103.979 43.6987H103.222L104.634 39.7974H105.37ZM105.534 42.3038L105.002 40.7346L104.47 42.3038H105.534Z" fill="black"/>
<path d="M113.167 40.4728H112.287V39.7754H114.763V40.4728H113.883V43.6985H113.167V40.4728Z" fill="black"/>
<path d="M120.472 39.7974H121.188V43.6987H120.472V39.7974Z" fill="black"/>
<path d="M128.023 41.7371C128.023 40.5383 128.882 39.7319 129.905 39.7319C130.929 39.7319 131.788 40.5383 131.788 41.7371C131.788 42.9358 130.929 43.7422 129.905 43.7422C128.882 43.7422 128.023 42.9358 128.023 41.7371ZM129.905 43.023C130.54 43.023 131.072 42.5217 131.072 41.7371C131.072 40.9524 130.54 40.4512 129.905 40.4512C129.271 40.4512 128.739 40.9524 128.739 41.7371C128.739 42.5217 129.292 43.023 129.905 43.023Z" fill="black"/>
<path d="M137.579 39.7974H138.295L139.973 42.4563H139.994V39.7974H140.71V43.6987H139.994L138.316 41.0397H138.295V43.6987H137.579V39.7974Z" fill="black"/>
<path d="M66.9 39.7974H68.9667V40.4948H67.5957V41.4102H68.7417V42.0858H67.5957V43.023H69.0077V43.7204H66.8795V39.7974H66.9Z" fill="url(#paint10_linear_89_34)"/>
<path d="M75.8628 39.7974H77.1929C78.1956 39.7974 78.9732 40.6038 78.9732 41.7589C78.9732 42.914 78.216 43.7204 77.1929 43.7204H75.8628V39.7974ZM77.152 42.9794C77.8477 42.9794 78.216 42.4781 78.216 41.7371C78.216 40.9961 77.8477 40.4948 77.152 40.4948H76.5585V42.9794H77.152Z" fill="url(#paint11_linear_89_34)"/>
<path d="M84.6823 42.2384V39.7974H85.3985V42.2384C85.3985 42.8486 85.7463 43.0448 86.0737 43.0448C86.4011 43.0448 86.749 42.8486 86.749 42.2384V39.7974H87.4652V42.2384C87.4652 43.2192 86.8513 43.7422 86.0737 43.7422C85.2961 43.7422 84.6823 43.2192 84.6823 42.2384Z" fill="url(#paint12_linear_89_34)"/>
<path d="M94.2999 41.7371C94.2999 40.5166 95.1594 39.7319 96.1825 39.7319C96.6736 39.7319 97.2875 39.9281 97.6763 40.5819L97.1647 40.9525C96.9192 40.5819 96.5713 40.4512 96.2235 40.4512C95.5686 40.4512 95.0366 40.9524 95.0366 41.7371C95.0366 42.5435 95.5686 43.023 96.2235 43.023C96.5918 43.023 96.9396 42.8704 97.1647 42.5217L97.6763 42.8922C97.2875 43.546 96.6941 43.7422 96.1825 43.7422C95.1594 43.7422 94.2999 42.9576 94.2999 41.7371Z" fill="url(#paint13_linear_89_34)"/>
<path d="M105.37 39.7974L106.782 43.6987H106.025L105.78 43.0012H104.224L103.979 43.6987H103.222L104.634 39.7974H105.37ZM105.534 42.3038L105.002 40.7346L104.47 42.3038H105.534Z" fill="url(#paint14_linear_89_34)"/>
<path d="M113.167 40.4728H112.287V39.7754H114.763V40.4728H113.883V43.6985H113.167V40.4728Z" fill="url(#paint15_linear_89_34)"/>
<path d="M120.472 39.7974H121.188V43.6987H120.472V39.7974Z" fill="url(#paint16_linear_89_34)"/>
<path d="M128.023 41.7371C128.023 40.5383 128.882 39.7319 129.905 39.7319C130.929 39.7319 131.788 40.5383 131.788 41.7371C131.788 42.9358 130.929 43.7422 129.905 43.7422C128.882 43.7422 128.023 42.9358 128.023 41.7371ZM129.905 43.023C130.54 43.023 131.072 42.5217 131.072 41.7371C131.072 40.9524 130.54 40.4512 129.905 40.4512C129.271 40.4512 128.739 40.9524 128.739 41.7371C128.739 42.5217 129.292 43.023 129.905 43.023Z" fill="url(#paint17_linear_89_34)"/>
<path d="M137.579 39.7974H138.295L139.973 42.4563H139.994V39.7974H140.71V43.6987H139.994L138.316 41.0397H138.295V43.6987H137.579V39.7974Z" fill="url(#paint18_linear_89_34)"/>
<path d="M8.66235 0.283203H27.7338L27.8771 7.69346H26.813C26.813 7.69346 27.0586 2.57167 21.3289 2.63705H10.5245C10.504 2.65885 9.17393 0.828075 8.66235 0.283203Z" fill="url(#paint19_linear_89_34)"/>
<path d="M12.3866 33.4987H25.0327C25.0327 33.4987 29.0639 33.0411 29.6778 28.377H30.967C30.967 28.377 29.1867 36.3321 29.2276 38.7295C29.2276 38.7295 28.0408 38.4462 26.5061 38.3372H9.11255L12.3866 33.4987Z" fill="url(#paint20_linear_89_34)"/>
<path d="M6.30914 0L19.5896 18.5474C19.5896 18.5474 19.9784 19.0487 19.4873 19.7026L6.75933 38.5115L0.0883988 38.7513C0.0883988 38.7513 -0.157155 38.5769 0.170253 38.2282L13.2461 20.0949C13.2461 20.0949 14.0032 19.3974 13.4507 18.7654L0.0883988 0.414101C0.0883988 0.414101 -0.279933 1.32993e-06 0.722752 0.0217962H6.30914V0Z" fill="url(#paint21_linear_89_34)"/>
<defs>
<linearGradient id="paint0_linear_89_34" x1="87.6414" y1="40.9226" x2="87.6414" y2="22.2485" gradientUnits="userSpaceOnUse">
<stop offset="2.34895e-08" stop-color="#004EA3"/>
<stop offset="1" stop-color="#0B80E8"/>
</linearGradient>
<linearGradient id="paint1_linear_89_34" x1="87.6414" y1="40.9225" x2="87.6414" y2="22.2484" gradientUnits="userSpaceOnUse">
<stop offset="2.34895e-08" stop-color="#004EA3"/>
<stop offset="1" stop-color="#0B80E8"/>
</linearGradient>
<linearGradient id="paint2_linear_89_34" x1="87.6415" y1="40.9222" x2="87.6415" y2="22.2482" gradientUnits="userSpaceOnUse">
<stop offset="2.34895e-08" stop-color="#004EA3"/>
<stop offset="1" stop-color="#0B80E8"/>
</linearGradient>
<linearGradient id="paint3_linear_89_34" x1="87.6414" y1="40.9224" x2="87.6414" y2="22.2484" gradientUnits="userSpaceOnUse">
<stop offset="2.34895e-08" stop-color="#004EA3"/>
<stop offset="1" stop-color="#0B80E8"/>
</linearGradient>
<linearGradient id="paint4_linear_89_34" x1="87.6415" y1="40.9226" x2="87.6415" y2="22.2486" gradientUnits="userSpaceOnUse">
<stop offset="2.34895e-08" stop-color="#004EA3"/>
<stop offset="1" stop-color="#0B80E8"/>
</linearGradient>
<linearGradient id="paint5_linear_89_34" x1="87.6414" y1="40.9224" x2="87.6414" y2="22.2484" gradientUnits="userSpaceOnUse">
<stop offset="2.34895e-08" stop-color="#004EA3"/>
<stop offset="1" stop-color="#0B80E8"/>
</linearGradient>
<linearGradient id="paint6_linear_89_34" x1="87.6413" y1="40.9223" x2="87.6413" y2="22.2483" gradientUnits="userSpaceOnUse">
<stop offset="2.34895e-08" stop-color="#004EA3"/>
<stop offset="1" stop-color="#0B80E8"/>
</linearGradient>
<linearGradient id="paint7_linear_89_34" x1="87.6414" y1="40.9224" x2="87.6414" y2="22.2483" gradientUnits="userSpaceOnUse">
<stop offset="2.34895e-08" stop-color="#004EA3"/>
<stop offset="1" stop-color="#0B80E8"/>
</linearGradient>
<linearGradient id="paint8_linear_89_34" x1="51.9211" y1="18.38" x2="51.9211" y2="6.32091" gradientUnits="userSpaceOnUse">
<stop offset="2.34895e-08" stop-color="#FBB232"/>
<stop offset="1" stop-color="#FFAD2C"/>
</linearGradient>
<linearGradient id="paint9_linear_89_34" x1="51.9211" y1="18.38" x2="51.9211" y2="6.32091" gradientUnits="userSpaceOnUse">
<stop offset="2.34895e-08" stop-color="#FBB232"/>
<stop offset="1" stop-color="#FFAD2C"/>
</linearGradient>
<linearGradient id="paint10_linear_89_34" x1="103.809" y1="42.742" x2="103.809" y2="40.2627" gradientUnits="userSpaceOnUse">
<stop offset="2.34895e-08" stop-color="#004EA3"/>
<stop offset="1" stop-color="#0B80E8"/>
</linearGradient>
<linearGradient id="paint11_linear_89_34" x1="103.809" y1="42.742" x2="103.809" y2="40.2627" gradientUnits="userSpaceOnUse">
<stop offset="2.34895e-08" stop-color="#004EA3"/>
<stop offset="1" stop-color="#0B80E8"/>
</linearGradient>
<linearGradient id="paint12_linear_89_34" x1="103.809" y1="42.742" x2="103.809" y2="40.2627" gradientUnits="userSpaceOnUse">
<stop offset="2.34895e-08" stop-color="#004EA3"/>
<stop offset="1" stop-color="#0B80E8"/>
</linearGradient>
<linearGradient id="paint13_linear_89_34" x1="103.809" y1="42.7419" x2="103.809" y2="40.2626" gradientUnits="userSpaceOnUse">
<stop offset="2.34895e-08" stop-color="#004EA3"/>
<stop offset="1" stop-color="#0B80E8"/>
</linearGradient>
<linearGradient id="paint14_linear_89_34" x1="103.809" y1="42.742" x2="103.809" y2="40.2627" gradientUnits="userSpaceOnUse">
<stop offset="2.34895e-08" stop-color="#004EA3"/>
<stop offset="1" stop-color="#0B80E8"/>
</linearGradient>
<linearGradient id="paint15_linear_89_34" x1="103.809" y1="42.7418" x2="103.809" y2="40.2625" gradientUnits="userSpaceOnUse">
<stop offset="2.34895e-08" stop-color="#004EA3"/>
<stop offset="1" stop-color="#0B80E8"/>
</linearGradient>
<linearGradient id="paint16_linear_89_34" x1="103.809" y1="42.742" x2="103.809" y2="40.2627" gradientUnits="userSpaceOnUse">
<stop offset="2.34895e-08" stop-color="#004EA3"/>
<stop offset="1" stop-color="#0B80E8"/>
</linearGradient>
<linearGradient id="paint17_linear_89_34" x1="103.809" y1="42.7419" x2="103.809" y2="40.2626" gradientUnits="userSpaceOnUse">
<stop offset="2.34895e-08" stop-color="#004EA3"/>
<stop offset="1" stop-color="#0B80E8"/>
</linearGradient>
<linearGradient id="paint18_linear_89_34" x1="103.809" y1="42.742" x2="103.809" y2="40.2627" gradientUnits="userSpaceOnUse">
<stop offset="2.34895e-08" stop-color="#004EA3"/>
<stop offset="1" stop-color="#0B80E8"/>
</linearGradient>
<linearGradient id="paint19_linear_89_34" x1="18.2697" y1="8.627" x2="18.2697" y2="0.379668" gradientUnits="userSpaceOnUse">
<stop stop-color="#2076BC"/>
<stop offset="1" stop-color="#0093E6"/>
</linearGradient>
<linearGradient id="paint20_linear_89_34" x1="20.0432" y1="38.9947" x2="20.0432" y2="28.4886" gradientUnits="userSpaceOnUse">
<stop offset="2.34895e-08" stop-color="#074BA7"/>
<stop offset="1" stop-color="#1158C0"/>
</linearGradient>
<linearGradient id="paint21_linear_89_34" x1="9.86018" y1="38.5406" x2="9.86018" y2="-0.549318" gradientUnits="userSpaceOnUse">
<stop stop-color="#FDB619"/>
<stop offset="1" stop-color="#FEB517"/>
</linearGradient>
</defs>
</svg>
